<svg xmlns="http://www.w3.org/2000/svg" viewBox="0 0 1229 1110" role="img" aria-label="BA011 Wi-Fi BT quad relay board, exploded layers: enclosure, PCB top, components, PCB bottom, Wall-mount feet"><defs><linearGradient id="gcan" x1="0" y1="0" x2="1" y2="1"><stop offset="0" stop-color="#d6dadc"/><stop offset="1" stop-color="#9aa1a5"/></linearGradient><linearGradient id="gmask" x1="0" y1="0" x2="1" y2="1"><stop offset="0" stop-color="#1b5a42"/><stop offset="1" stop-color="#0f3a2a"/></linearGradient><pattern id="gh" width="4" height="4" patternUnits="userSpaceOnUse" patternTransform="rotate(45)"><path d="M0 0V4" stroke="currentColor" stroke-width=".4" opacity=".4"/></pattern><filter id="sh" x="-5%" y="-5%" width="110%" height="115%"><feDropShadow dx="0" dy="3" stdDeviation="3" flood-opacity=".35"/></filter></defs><g id="mount" data-label="Wall-mount feet" style="--i:4;transform:translateY(calc(var(--explode,1) * var(--i) * 105px))"><g transform="matrix(.866 .5 -.866 .5 351.8 40)"><rect x="24" y="24" width="24" height="24" rx="5" fill="#3a4247" stroke="currentColor"/><circle cx="36" cy="36" r="5" fill="#111" stroke="#666"/><rect x="840" y="24" width="24" height="24" rx="5" fill="#3a4247" stroke="currentColor"/><circle cx="852" cy="36" r="5" fill="#111" stroke="#666"/><rect x="24" y="360" width="24" height="24" rx="5" fill="#3a4247" stroke="currentColor"/><circle cx="36" cy="372" r="5" fill="#111" stroke="#666"/><rect x="840" y="360" width="24" height="24" rx="5" fill="#3a4247" stroke="currentColor"/><circle cx="852" cy="372" r="5" fill="#111" stroke="#666"/></g><text x="1221" y="760" text-anchor="end" font-family="IBM Plex Mono,monospace" font-size="9" fill="currentColor">5 · Wall-mount feet</text></g><g id="pcb-bottom" data-label="PCB bottom" style="--i:3;transform:translateY(calc(var(--explode,1) * var(--i) * 105px))"><g transform="matrix(.866 .5 -.866 .5 351.8 40)"><rect x="24" y="24" width="840" height="360" rx="3" fill="#0f3828" stroke="#0b2a1f"/><g fill="none" stroke="#d08a3e" stroke-width="1.6" opacity=".6" transform="translate(888 0) scale(-1 1)"><polyline points="384,138 468,138 540,210"/><polyline points="540,210 540,132 522,114"/><polyline points="540,210 540,192 618,114"/><polyline points="540,210 618,210 714,114"/><polyline points="540,210 714,210 810,114"/><polyline points="522,114 522,324 522,324"/><polyline points="618,114 618,324 618,324"/><polyline points="714,114 714,324 714,324"/><polyline points="810,114 810,324 810,324"/><polyline points="72,204 72,198 174,96"/><polyline points="174,96 342,96 384,138"/><polyline points="159,324 198,324 384,138"/><polyline points="234,318 234,288 384,138"/><polyline points="390,348 390,144 384,138"/><polyline points="408,264 408,162 384,138"/></g></g><text x="1221" y="655" text-anchor="end" font-family="IBM Plex Mono,monospace" font-size="9" fill="currentColor">4 · PCB bottom</text></g><g id="components" data-label="Components" style="--i:2;transform:translateY(calc(var(--explode,1) * var(--i) * 105px))"><g transform="matrix(.866 .5 -.866 .5 351.8 40)"><rect x="42" y="156" width="60" height="96" rx="1.5" fill="#2e8b57" stroke="#1d6a41" stroke-width="1"/><rect x="43" y="157" width="58" height="24" rx="1" fill="#fff" opacity=".16"/><circle cx="72" cy="180" r="4.1" fill="#a9afb2" stroke="#555" stroke-width=".6"/><path d="M69.6 180H74.4" stroke="#333" stroke-width="1"/><circle cx="72" cy="228" r="4.1" fill="#a9afb2" stroke="#555" stroke-width=".6"/><path d="M69.6 228H74.4" stroke="#333" stroke-width="1"/><rect x="120" y="48" width="108" height="96" rx="2" fill="#e6e3d6" stroke="#bdb9a8"/><text x="174" y="98" text-anchor="middle" font-family="IBM Plex Mono,monospace" font-size="5.5" font-weight="600" fill="#444">HLK-PM01</text><rect x="324" y="72" width="120" height="132" rx="1.5" fill="url(#gcan)" stroke="#8e969a"/><text x="384" y="140" text-anchor="middle" font-family="IBM Plex Mono,monospace" font-size="6" font-weight="600" fill="#3b4144">ESP32S</text><rect x="300" y="336" width="180" height="24" fill="#111"/><rect x="304.7" y="346.7" width="2.6" height="2.6" fill="#e2bf5a"/><rect x="316.7" y="346.7" width="2.6" height="2.6" fill="#e2bf5a"/><rect x="328.7" y="346.7" width="2.6" height="2.6" fill="#e2bf5a"/><rect x="340.7" y="346.7" width="2.6" height="2.6" fill="#e2bf5a"/><rect x="352.7" y="346.7" width="2.6" height="2.6" fill="#e2bf5a"/><rect x="364.7" y="346.7" width="2.6" height="2.6" fill="#e2bf5a"/><rect x="376.7" y="346.7" width="2.6" height="2.6" fill="#e2bf5a"/><rect x="388.7" y="346.7" width="2.6" height="2.6" fill="#e2bf5a"/><rect x="400.7" y="346.7" width="2.6" height="2.6" fill="#e2bf5a"/><rect x="412.7" y="346.7" width="2.6" height="2.6" fill="#e2bf5a"/><rect x="424.7" y="346.7" width="2.6" height="2.6" fill="#e2bf5a"/><rect x="436.7" y="346.7" width="2.6" height="2.6" fill="#e2bf5a"/><rect x="448.7" y="346.7" width="2.6" height="2.6" fill="#e2bf5a"/><rect x="460.7" y="346.7" width="2.6" height="2.6" fill="#e2bf5a"/><rect x="472.7" y="346.7" width="2.6" height="2.6" fill="#e2bf5a"/><rect x="360" y="252" width="96" height="24" fill="#111"/><rect x="366.7" y="262.7" width="2.6" height="2.6" fill="#e2bf5a"/><rect x="382.7" y="262.7" width="2.6" height="2.6" fill="#e2bf5a"/><rect x="398.7" y="262.7" width="2.6" height="2.6" fill="#e2bf5a"/><rect x="414.7" y="262.7" width="2.6" height="2.6" fill="#e2bf5a"/><rect x="430.7" y="262.7" width="2.6" height="2.6" fill="#e2bf5a"/><rect x="446.7" y="262.7" width="2.6" height="2.6" fill="#e2bf5a"/><rect x="480" y="60" width="84" height="108" rx="2" fill="#2d63b4" stroke="#1e4a8c" stroke-width="1.5"/><rect x="490.1" y="73" width="63.8" height="19.4" rx="1" fill="#fff" opacity=".2"/><text x="522" y="116" text-anchor="middle" font-family="IBM Plex Mono,monospace" font-size="5" fill="#dfe9fb">SRD-05VDC</text><rect x="576" y="60" width="84" height="108" rx="2" fill="#2d63b4" stroke="#1e4a8c" stroke-width="1.5"/><rect x="586.1" y="73" width="63.8" height="19.4" rx="1" fill="#fff" opacity=".2"/><text x="618" y="116" text-anchor="middle" font-family="IBM Plex Mono,monospace" font-size="5" fill="#dfe9fb">SRD-05VDC</text><rect x="672" y="60" width="84" height="108" rx="2" fill="#2d63b4" stroke="#1e4a8c" stroke-width="1.5"/><rect x="682.1" y="73" width="63.8" height="19.4" rx="1" fill="#fff" opacity=".2"/><text x="714" y="116" text-anchor="middle" font-family="IBM Plex Mono,monospace" font-size="5" fill="#dfe9fb">SRD-05VDC</text><rect x="768" y="60" width="84" height="108" rx="2" fill="#2d63b4" stroke="#1e4a8c" stroke-width="1.5"/><rect x="778.1" y="73" width="63.8" height="19.4" rx="1" fill="#fff" opacity=".2"/><text x="810" y="116" text-anchor="middle" font-family="IBM Plex Mono,monospace" font-size="5" fill="#dfe9fb">SRD-05VDC</text><rect x="480" y="288" width="84" height="72" rx="1.5" fill="#2e8b57" stroke="#1d6a41" stroke-width="1"/><rect x="481" y="289" width="82" height="18" rx="1" fill="#fff" opacity=".16"/><circle cx="494" cy="324" r="4.1" fill="#a9afb2" stroke="#555" stroke-width=".6"/><path d="M491.6 324H496.4" stroke="#333" stroke-width="1"/><circle cx="522" cy="324" r="4.1" fill="#a9afb2" stroke="#555" stroke-width=".6"/><path d="M519.6 324H524.4" stroke="#333" stroke-width="1"/><circle cx="550" cy="324" r="4.1" fill="#a9afb2" stroke="#555" stroke-width=".6"/><path d="M547.6 324H552.4" stroke="#333" stroke-width="1"/><rect x="576" y="288" width="84" height="72" rx="1.5" fill="#2e8b57" stroke="#1d6a41" stroke-width="1"/><rect x="577" y="289" width="82" height="18" rx="1" fill="#fff" opacity=".16"/><circle cx="590" cy="324" r="4.1" fill="#a9afb2" stroke="#555" stroke-width=".6"/><path d="M587.6 324H592.4" stroke="#333" stroke-width="1"/><circle cx="618" cy="324" r="4.1" fill="#a9afb2" stroke="#555" stroke-width=".6"/><path d="M615.6 324H620.4" stroke="#333" stroke-width="1"/><circle cx="646" cy="324" r="4.1" fill="#a9afb2" stroke="#555" stroke-width=".6"/><path d="M643.6 324H648.4" stroke="#333" stroke-width="1"/><rect x="672" y="288" width="84" height="72" rx="1.5" fill="#2e8b57" stroke="#1d6a41" stroke-width="1"/><rect x="673" y="289" width="82" height="18" rx="1" fill="#fff" opacity=".16"/><circle cx="686" cy="324" r="4.1" fill="#a9afb2" stroke="#555" stroke-width=".6"/><path d="M683.6 324H688.4" stroke="#333" stroke-width="1"/><circle cx="714" cy="324" r="4.1" fill="#a9afb2" stroke="#555" stroke-width=".6"/><path d="M711.6 324H716.4" stroke="#333" stroke-width="1"/><circle cx="742" cy="324" r="4.1" fill="#a9afb2" stroke="#555" stroke-width=".6"/><path d="M739.6 324H744.4" stroke="#333" stroke-width="1"/><rect x="768" y="288" width="84" height="72" rx="1.5" fill="#2e8b57" stroke="#1d6a41" stroke-width="1"/><rect x="769" y="289" width="82" height="18" rx="1" fill="#fff" opacity=".16"/><circle cx="782" cy="324" r="4.1" fill="#a9afb2" stroke="#555" stroke-width=".6"/><path d="M779.6 324H784.4" stroke="#333" stroke-width="1"/><circle cx="810" cy="324" r="4.1" fill="#a9afb2" stroke="#555" stroke-width=".6"/><path d="M807.6 324H812.4" stroke="#333" stroke-width="1"/><circle cx="838" cy="324" r="4.1" fill="#a9afb2" stroke="#555" stroke-width=".6"/><path d="M835.6 324H840.4" stroke="#333" stroke-width="1"/><rect x="504" y="192" width="72" height="36" rx="1" fill="#1b1d20"/><rect x="507.9" y="190.4" width="1.2" height="1.6" fill="#c8c8c8"/><rect x="507.9" y="228" width="1.2" height="1.6" fill="#c8c8c8"/><rect x="516.9" y="190.4" width="1.2" height="1.6" fill="#c8c8c8"/><rect x="516.9" y="228" width="1.2" height="1.6" fill="#c8c8c8"/><rect x="525.9" y="190.4" width="1.2" height="1.6" fill="#c8c8c8"/><rect x="525.9" y="228" width="1.2" height="1.6" fill="#c8c8c8"/><rect x="534.9" y="190.4" width="1.2" height="1.6" fill="#c8c8c8"/><rect x="534.9" y="228" width="1.2" height="1.6" fill="#c8c8c8"/><rect x="543.9" y="190.4" width="1.2" height="1.6" fill="#c8c8c8"/><rect x="543.9" y="228" width="1.2" height="1.6" fill="#c8c8c8"/><rect x="552.9" y="190.4" width="1.2" height="1.6" fill="#c8c8c8"/><rect x="552.9" y="228" width="1.2" height="1.6" fill="#c8c8c8"/><rect x="561.9" y="190.4" width="1.2" height="1.6" fill="#c8c8c8"/><rect x="561.9" y="228" width="1.2" height="1.6" fill="#c8c8c8"/><rect x="570.9" y="190.4" width="1.2" height="1.6" fill="#c8c8c8"/><rect x="570.9" y="228" width="1.2" height="1.6" fill="#c8c8c8"/><text x="540" y="212" text-anchor="middle" font-family="IBM Plex Mono,monospace" font-size="4.5" fill="#9aa">PC817 x4</text><rect x="132" y="300" width="54" height="48" rx="1" fill="#aeb4b7" stroke="#6d7376"/><rect x="140.1" y="314.4" width="37.8" height="19.2" fill="#0a0d0c"/><rect x="216" y="300" width="36" height="36" rx="1" fill="#2c2f31"/><circle cx="234" cy="318" r="11.5" fill="#16181a" stroke="#555"/><rect x="264" y="300" width="36" height="36" rx="1" fill="#2c2f31"/><circle cx="282" cy="318" r="11.5" fill="#16181a" stroke="#555"/></g><text x="1221" y="550" text-anchor="end" font-family="IBM Plex Mono,monospace" font-size="9" fill="currentColor">3 · Components</text></g><g id="pcb-top" data-label="PCB top" style="--i:1;transform:translateY(calc(var(--explode,1) * var(--i) * 105px))"><g transform="matrix(.866 .5 -.866 .5 351.8 40)"><rect x="24" y="24" width="840" height="360" rx="3" fill="url(#gmask)" fill-opacity=".6" stroke="#0b2a1f"/><g fill="none" stroke="#d08a3e" stroke-width="1.6" opacity=".8"><polyline points="384,138 468,138 540,210"/><polyline points="540,210 540,132 522,114"/><polyline points="540,210 540,192 618,114"/><polyline points="540,210 618,210 714,114"/><polyline points="540,210 714,210 810,114"/><polyline points="522,114 522,324 522,324"/><polyline points="618,114 618,324 618,324"/><polyline points="714,114 714,324 714,324"/><polyline points="810,114 810,324 810,324"/><polyline points="72,204 72,198 174,96"/><polyline points="174,96 342,96 384,138"/><polyline points="159,324 198,324 384,138"/><polyline points="234,318 234,288 384,138"/><polyline points="390,348 390,144 384,138"/><polyline points="408,264 408,162 384,138"/></g><g fill="#d08a3e"><circle cx="540" cy="210" r="2"/><circle cx="522" cy="114" r="2"/><circle cx="618" cy="114" r="2"/><circle cx="714" cy="114" r="2"/><circle cx="810" cy="114" r="2"/><circle cx="522" cy="324" r="2"/><circle cx="618" cy="324" r="2"/><circle cx="714" cy="324" r="2"/><circle cx="810" cy="324" r="2"/><circle cx="174" cy="96" r="2"/><circle cx="384" cy="138" r="2"/><circle cx="384" cy="138" r="2"/><circle cx="384" cy="138" r="2"/><circle cx="384" cy="138" r="2"/><circle cx="384" cy="138" r="2"/></g></g><text x="1221" y="445" text-anchor="end" font-family="IBM Plex Mono,monospace" font-size="9" fill="currentColor">2 · PCB top</text></g><g id="enclosure" data-label="Enclosure" style="--i:0;transform:translateY(calc(var(--explode,1) * var(--i) * 105px))"><g transform="matrix(.866 .5 -.866 .5 351.8 40)"><rect x="24" y="24" width="840" height="360" rx="8" fill="#2b3135" fill-opacity=".35" stroke="currentColor"/><g stroke="currentColor" opacity=".5"><path d="M234 67.2H654"/><path d="M234 74.2H654"/><path d="M234 81.2H654"/><path d="M234 88.2H654"/></g></g><text x="1221" y="340" text-anchor="end" font-family="IBM Plex Mono,monospace" font-size="9" fill="currentColor">1 · Enclosure</text></g></svg>