<svg xmlns="http://www.w3.org/2000/svg" viewBox="0 0 943 945" role="img" aria-label="IA003 RPi 4-DIO UPS board, exploded layers: enclosure, PCB top, components, PCB bottom, 40-pin stack header"><defs><linearGradient id="gcan" x1="0" y1="0" x2="1" y2="1"><stop offset="0" stop-color="#d6dadc"/><stop offset="1" stop-color="#9aa1a5"/></linearGradient><linearGradient id="gmask" x1="0" y1="0" x2="1" y2="1"><stop offset="0" stop-color="#1b5a42"/><stop offset="1" stop-color="#0f3a2a"/></linearGradient><pattern id="gh" width="4" height="4" patternUnits="userSpaceOnUse" patternTransform="rotate(45)"><path d="M0 0V4" stroke="currentColor" stroke-width=".4" opacity=".4"/></pattern><filter id="sh" x="-5%" y="-5%" width="110%" height="115%"><feDropShadow dx="0" dy="3" stdDeviation="3" flood-opacity=".35"/></filter></defs><g id="mount" data-label="40-pin stack header" style="--i:4;transform:translateY(calc(var(--explode,1) * var(--i) * 105px))"><g transform="matrix(.866 .5 -.866 .5 351.8 40)"><rect x="75.0" y="28" width="408.0" height="14" fill="#111" stroke="currentColor"/><rect x="79.0" y="32" width="4" height="6" fill="#e2bf5a"/><rect x="99.0" y="32" width="4" height="6" fill="#e2bf5a"/><rect x="119.0" y="32" width="4" height="6" fill="#e2bf5a"/><rect x="139.0" y="32" width="4" height="6" fill="#e2bf5a"/><rect x="159.0" y="32" width="4" height="6" fill="#e2bf5a"/><rect x="179.0" y="32" width="4" height="6" fill="#e2bf5a"/><rect x="199.0" y="32" width="4" height="6" fill="#e2bf5a"/><rect x="219.0" y="32" width="4" height="6" fill="#e2bf5a"/><rect x="239.0" y="32" width="4" height="6" fill="#e2bf5a"/><rect x="259.0" y="32" width="4" height="6" fill="#e2bf5a"/><rect x="279.0" y="32" width="4" height="6" fill="#e2bf5a"/><rect x="299.0" y="32" width="4" height="6" fill="#e2bf5a"/><rect x="319.0" y="32" width="4" height="6" fill="#e2bf5a"/><rect x="339.0" y="32" width="4" height="6" fill="#e2bf5a"/><rect x="359.0" y="32" width="4" height="6" fill="#e2bf5a"/><rect x="379.0" y="32" width="4" height="6" fill="#e2bf5a"/><rect x="399.0" y="32" width="4" height="6" fill="#e2bf5a"/><rect x="419.0" y="32" width="4" height="6" fill="#e2bf5a"/><rect x="439.0" y="32" width="4" height="6" fill="#e2bf5a"/><rect x="459.0" y="32" width="4" height="6" fill="#e2bf5a"/></g><text x="935" y="677.5" text-anchor="end" font-family="IBM Plex Mono,monospace" font-size="9" fill="currentColor">5 · 40-pin stack header</text></g><g id="pcb-bottom" data-label="PCB bottom" style="--i:3;transform:translateY(calc(var(--explode,1) * var(--i) * 105px))"><g transform="matrix(.866 .5 -.866 .5 351.8 40)"><rect x="24" y="24" width="510" height="360" rx="3" fill="#0f3828" stroke="#0b2a1f"/><g fill="none" stroke="#d08a3e" stroke-width="1.6" opacity=".6" transform="translate(558 0) scale(-1 1)"><polyline points="69,204 72,204 150,126"/><polyline points="150,126 213,126 288,51"/><polyline points="264,348 264,75 288,51"/><polyline points="432,348 432,195 288,51"/><polyline points="438,240 438,198 414,174"/><polyline points="414,174 411,174 288,51"/><polyline points="306,168 306,69 288,51"/><polyline points="177,201 177,162 288,51"/><polyline points="84,318 156,318 198,276"/><polyline points="198,276 198,174 150,126"/></g></g><text x="935" y="572.5" text-anchor="end" font-family="IBM Plex Mono,monospace" font-size="9" fill="currentColor">4 · PCB bottom</text></g><g id="components" data-label="Components" style="--i:2;transform:translateY(calc(var(--explode,1) * var(--i) * 105px))"><g transform="matrix(.866 .5 -.866 .5 351.8 40)"><rect x="108" y="36" width="360" height="30" fill="#111"/><rect x="115.7" y="49.7" width="2.6" height="2.6" fill="#e2bf5a"/><rect x="133.7" y="49.7" width="2.6" height="2.6" fill="#e2bf5a"/><rect x="151.7" y="49.7" width="2.6" height="2.6" fill="#e2bf5a"/><rect x="169.7" y="49.7" width="2.6" height="2.6" fill="#e2bf5a"/><rect x="187.7" y="49.7" width="2.6" height="2.6" fill="#e2bf5a"/><rect x="205.7" y="49.7" width="2.6" height="2.6" fill="#e2bf5a"/><rect x="223.7" y="49.7" width="2.6" height="2.6" fill="#e2bf5a"/><rect x="241.7" y="49.7" width="2.6" height="2.6" fill="#e2bf5a"/><rect x="259.7" y="49.7" width="2.6" height="2.6" fill="#e2bf5a"/><rect x="277.7" y="49.7" width="2.6" height="2.6" fill="#e2bf5a"/><rect x="295.7" y="49.7" width="2.6" height="2.6" fill="#e2bf5a"/><rect x="313.7" y="49.7" width="2.6" height="2.6" fill="#e2bf5a"/><rect x="331.7" y="49.7" width="2.6" height="2.6" fill="#e2bf5a"/><rect x="349.7" y="49.7" width="2.6" height="2.6" fill="#e2bf5a"/><rect x="367.7" y="49.7" width="2.6" height="2.6" fill="#e2bf5a"/><rect x="385.7" y="49.7" width="2.6" height="2.6" fill="#e2bf5a"/><rect x="403.7" y="49.7" width="2.6" height="2.6" fill="#e2bf5a"/><rect x="421.7" y="49.7" width="2.6" height="2.6" fill="#e2bf5a"/><rect x="439.7" y="49.7" width="2.6" height="2.6" fill="#e2bf5a"/><rect x="457.7" y="49.7" width="2.6" height="2.6" fill="#e2bf5a"/><rect x="42" y="168" width="54" height="72" rx="1.5" fill="#2e8b57" stroke="#1d6a41" stroke-width="1"/><rect x="43" y="169" width="52" height="18" rx="1" fill="#fff" opacity=".16"/><circle cx="69" cy="186" r="4.1" fill="#a9afb2" stroke="#555" stroke-width=".6"/><path d="M66.6 186H71.4" stroke="#333" stroke-width="1"/><circle cx="69" cy="222" r="4.1" fill="#a9afb2" stroke="#555" stroke-width=".6"/><path d="M66.6 222H71.4" stroke="#333" stroke-width="1"/><rect x="108" y="96" width="84" height="60" rx="2" fill="#e6e3d6" stroke="#bdb9a8"/><text x="150" y="128" text-anchor="middle" font-family="IBM Plex Mono,monospace" font-size="5.5" font-weight="600" fill="#444">BUCK 5V</text><rect x="48" y="288" width="72" height="60" rx="1.5" fill="#2e8b57" stroke="#1d6a41" stroke-width="1"/><rect x="49" y="289" width="70" height="15" rx="1" fill="#fff" opacity=".16"/><circle cx="66" cy="318" r="4.1" fill="#a9afb2" stroke="#555" stroke-width=".6"/><path d="M63.6 318H68.4" stroke="#333" stroke-width="1"/><circle cx="102" cy="318" r="4.1" fill="#a9afb2" stroke="#555" stroke-width=".6"/><path d="M99.6 318H104.4" stroke="#333" stroke-width="1"/><rect x="168" y="252" width="60" height="48" rx="2" fill="#e6e3d6" stroke="#bdb9a8"/><text x="198" y="278" text-anchor="middle" font-family="IBM Plex Mono,monospace" font-size="5.5" font-weight="600" fill="#444">MT3608</text><rect x="264" y="132" width="84" height="72" rx="36" fill="#c9ccd0" stroke="#7d8286"/><text x="306" y="170" text-anchor="middle" font-family="IBM Plex Mono,monospace" font-size="4.5" fill="#444">DS1307</text><rect x="156" y="180" width="42" height="42" rx="1" fill="#2c2f31"/><circle cx="177" cy="201" r="13.4" fill="#16181a" stroke="#555"/><rect x="384" y="156" width="60" height="36" rx="1" fill="#1b1d20"/><rect x="388.4" y="154.4" width="1.2" height="1.6" fill="#c8c8c8"/><rect x="388.4" y="192" width="1.2" height="1.6" fill="#c8c8c8"/><rect x="398.4" y="154.4" width="1.2" height="1.6" fill="#c8c8c8"/><rect x="398.4" y="192" width="1.2" height="1.6" fill="#c8c8c8"/><rect x="408.4" y="154.4" width="1.2" height="1.6" fill="#c8c8c8"/><rect x="408.4" y="192" width="1.2" height="1.6" fill="#c8c8c8"/><rect x="418.4" y="154.4" width="1.2" height="1.6" fill="#c8c8c8"/><rect x="418.4" y="192" width="1.2" height="1.6" fill="#c8c8c8"/><rect x="428.4" y="154.4" width="1.2" height="1.6" fill="#c8c8c8"/><rect x="428.4" y="192" width="1.2" height="1.6" fill="#c8c8c8"/><rect x="438.4" y="154.4" width="1.2" height="1.6" fill="#c8c8c8"/><rect x="438.4" y="192" width="1.2" height="1.6" fill="#c8c8c8"/><text x="414" y="176" text-anchor="middle" font-family="IBM Plex Mono,monospace" font-size="4.5" fill="#9aa">ADS1115</text><rect x="384" y="216" width="108" height="48" rx="1.5" fill="#2e8b57" stroke="#1d6a41" stroke-width="1"/><rect x="385" y="217" width="106" height="12" rx="1" fill="#fff" opacity=".16"/><circle cx="402" cy="240" r="4.1" fill="#a9afb2" stroke="#555" stroke-width=".6"/><path d="M399.6 240H404.4" stroke="#333" stroke-width="1"/><circle cx="438" cy="240" r="4.1" fill="#a9afb2" stroke="#555" stroke-width=".6"/><path d="M435.6 240H440.4" stroke="#333" stroke-width="1"/><circle cx="474" cy="240" r="4.1" fill="#a9afb2" stroke="#555" stroke-width=".6"/><path d="M471.6 240H476.4" stroke="#333" stroke-width="1"/><rect x="192" y="324" width="144" height="48" rx="1.5" fill="#2e8b57" stroke="#1d6a41" stroke-width="1"/><rect x="193" y="325" width="142" height="12" rx="1" fill="#fff" opacity=".16"/><circle cx="210" cy="348" r="4.1" fill="#a9afb2" stroke="#555" stroke-width=".6"/><path d="M207.6 348H212.4" stroke="#333" stroke-width="1"/><circle cx="246" cy="348" r="4.1" fill="#a9afb2" stroke="#555" stroke-width=".6"/><path d="M243.6 348H248.4" stroke="#333" stroke-width="1"/><circle cx="282" cy="348" r="4.1" fill="#a9afb2" stroke="#555" stroke-width=".6"/><path d="M279.6 348H284.4" stroke="#333" stroke-width="1"/><circle cx="318" cy="348" r="4.1" fill="#a9afb2" stroke="#555" stroke-width=".6"/><path d="M315.6 348H320.4" stroke="#333" stroke-width="1"/><rect x="360" y="324" width="144" height="48" rx="1.5" fill="#2e8b57" stroke="#1d6a41" stroke-width="1"/><rect x="361" y="325" width="142" height="12" rx="1" fill="#fff" opacity=".16"/><circle cx="378" cy="348" r="4.1" fill="#a9afb2" stroke="#555" stroke-width=".6"/><path d="M375.6 348H380.4" stroke="#333" stroke-width="1"/><circle cx="414" cy="348" r="4.1" fill="#a9afb2" stroke="#555" stroke-width=".6"/><path d="M411.6 348H416.4" stroke="#333" stroke-width="1"/><circle cx="450" cy="348" r="4.1" fill="#a9afb2" stroke="#555" stroke-width=".6"/><path d="M447.6 348H452.4" stroke="#333" stroke-width="1"/><circle cx="486" cy="348" r="4.1" fill="#a9afb2" stroke="#555" stroke-width=".6"/><path d="M483.6 348H488.4" stroke="#333" stroke-width="1"/></g><text x="935" y="467.5" text-anchor="end" font-family="IBM Plex Mono,monospace" font-size="9" fill="currentColor">3 · Components</text></g><g id="pcb-top" data-label="PCB top" style="--i:1;transform:translateY(calc(var(--explode,1) * var(--i) * 105px))"><g transform="matrix(.866 .5 -.866 .5 351.8 40)"><rect x="24" y="24" width="510" height="360" rx="3" fill="url(#gmask)" fill-opacity=".6" stroke="#0b2a1f"/><g fill="none" stroke="#d08a3e" stroke-width="1.6" opacity=".8"><polyline points="69,204 72,204 150,126"/><polyline points="150,126 213,126 288,51"/><polyline points="264,348 264,75 288,51"/><polyline points="432,348 432,195 288,51"/><polyline points="438,240 438,198 414,174"/><polyline points="414,174 411,174 288,51"/><polyline points="306,168 306,69 288,51"/><polyline points="177,201 177,162 288,51"/><polyline points="84,318 156,318 198,276"/><polyline points="198,276 198,174 150,126"/></g><g fill="#d08a3e"><circle cx="150" cy="126" r="2"/><circle cx="288" cy="51" r="2"/><circle cx="288" cy="51" r="2"/><circle cx="288" cy="51" r="2"/><circle cx="414" cy="174" r="2"/><circle cx="288" cy="51" r="2"/><circle cx="288" cy="51" r="2"/><circle cx="288" cy="51" r="2"/><circle cx="198" cy="276" r="2"/><circle cx="150" cy="126" r="2"/></g></g><text x="935" y="362.5" text-anchor="end" font-family="IBM Plex Mono,monospace" font-size="9" fill="currentColor">2 · PCB top</text></g><g id="enclosure" data-label="Enclosure" style="--i:0;transform:translateY(calc(var(--explode,1) * var(--i) * 105px))"><g transform="matrix(.866 .5 -.866 .5 351.8 40)"><rect x="24" y="24" width="510" height="360" rx="8" fill="#2b3135" fill-opacity=".35" stroke="currentColor"/><g stroke="currentColor" opacity=".5"><path d="M151.5 67.2H406.5"/><path d="M151.5 74.2H406.5"/><path d="M151.5 81.2H406.5"/><path d="M151.5 88.2H406.5"/></g></g><text x="935" y="257.5" text-anchor="end" font-family="IBM Plex Mono,monospace" font-size="9" fill="currentColor">1 · Enclosure</text></g></svg>